<svg id="Layer_1" data-name="Layer 1" xmlns="http://www.w3.org/2000/svg" viewBox="0 0 300 300"><defs><style>.cls-1{fill:#fff;}.cls-2,.cls-3,.cls-4,.cls-5,.cls-6{fill:none;stroke-linejoin:round;stroke-width:2px;}.cls-2,.cls-5{stroke:#895d3b;}.cls-2,.cls-4,.cls-6{stroke-linecap:round;}.cls-3,.cls-4{stroke:#009885;}.cls-6{stroke:#00aed7;}</style></defs><circle class="cls-1" cx="147.09" cy="153.33" r="90"/><polyline class="cls-2" points="97.31 171.56 97.31 113.28 51.69 113.28 51.69 168.7"/><line class="cls-2" x1="105.74" y1="156.43" x2="129.04" y2="156.43"/><line class="cls-2" x1="105.74" y1="166.95" x2="129.04" y2="166.95"/><polyline class="cls-2" points="138.94 211.22 138.94 145.92 99.35 145.92"/><path class="cls-3" d="M57.8,202a10.52,10.52,0,1,1-21,0c0-7,5.25-28,10.51-28S57.8,195,57.8,202Z"/><line class="cls-4" x1="42.02" y1="198.5" x2="47.28" y2="203.75"/><line class="cls-4" x1="50.79" y1="193.24" x2="47.28" y2="196.74"/><line class="cls-4" x1="47.28" y1="184.47" x2="47.28" y2="219.53"/><path class="cls-3" d="M246.7,204a10.52,10.52,0,1,1-21,0c0-7,5.26-28,10.52-28S246.7,197,246.7,204Z"/><line class="cls-4" x1="230.93" y1="200.48" x2="236.19" y2="205.74"/><line class="cls-4" x1="239.69" y1="195.23" x2="236.19" y2="198.73"/><line class="cls-4" x1="236.19" y1="186.46" x2="236.19" y2="221.52"/><rect class="cls-5" x="97.39" y="140.08" width="46.09" height="6.15"/><line class="cls-4" x1="96.25" y1="200.37" x2="102.85" y2="206.97"/><line class="cls-4" x1="108.15" y1="195.4" x2="102.85" y2="200.69"/><line class="cls-4" x1="102.85" y1="192.1" x2="102.85" y2="219.53"/><circle class="cls-3" cx="102.85" cy="198.26" r="11.85"/><rect class="cls-5" x="138.94" y="183.83" width="78.27" height="6.15"/><line class="cls-2" x1="211.76" y1="190.4" x2="211.76" y2="210.26"/><line class="cls-6" x1="152.81" y1="202.02" x2="165.04" y2="202.02"/><line class="cls-6" x1="158.93" y1="202.02" x2="158.93" y2="210.76"/><line class="cls-6" x1="165.08" y1="206.08" x2="169.91" y2="206.08"/><line class="cls-6" x1="167.49" y1="206.08" x2="167.49" y2="210.76"/><line class="cls-6" x1="147.94" y1="206.08" x2="152.77" y2="206.08"/><line class="cls-6" x1="150.36" y1="206.08" x2="150.36" y2="210.76"/><line class="cls-6" x1="184.74" y1="202.02" x2="196.97" y2="202.02"/><line class="cls-6" x1="190.86" y1="202.02" x2="190.86" y2="210.76"/><line class="cls-6" x1="197.01" y1="206.08" x2="201.84" y2="206.08"/><line class="cls-6" x1="199.42" y1="206.08" x2="199.42" y2="210.76"/><line class="cls-6" x1="179.87" y1="206.08" x2="184.7" y2="206.08"/><line class="cls-6" x1="182.29" y1="206.08" x2="182.29" y2="210.76"/><line class="cls-6" x1="114.99" y1="212.52" x2="223.22" y2="212.52"/><line class="cls-2" x1="59.98" y1="144.39" x2="89.56" y2="144.39"/><line class="cls-2" x1="59.98" y1="133.88" x2="89.56" y2="133.88"/><line class="cls-2" x1="59.98" y1="154.91" x2="89.56" y2="154.91"/><line class="cls-2" x1="59.98" y1="165.43" x2="89.56" y2="165.43"/><line class="cls-2" x1="59.98" y1="175.94" x2="89.56" y2="175.94"/><line class="cls-2" x1="59.98" y1="123.36" x2="89.56" y2="123.36"/><line class="cls-2" x1="92.55" y1="219.53" x2="85.54" y2="209.01"/><line class="cls-2" x1="57" y1="219.53" x2="64.01" y2="209.01"/><polyline class="cls-2" points="63.98 209.01 63.98 191.88 74.74 191.88 74.74 209.01"/><polyline class="cls-2" points="74.78 209.01 74.78 191.88 85.54 191.88 85.54 209.01"/><line class="cls-2" x1="64.01" y1="209.01" x2="85.54" y2="209.01"/><line class="cls-2" x1="105.74" y1="177.9" x2="129.04" y2="177.9"/><line class="cls-2" x1="119.76" y1="189.3" x2="129.04" y2="189.3"/><line class="cls-2" x1="233.67" y1="156.43" x2="210.36" y2="156.43"/><line class="cls-2" x1="233.67" y1="166.95" x2="210.36" y2="166.95"/><rect class="cls-5" x="199.61" y="140.08" width="46.09" height="6.15" transform="translate(445.32 286.3) rotate(-180)"/><line class="cls-2" x1="226.66" y1="177.9" x2="210.36" y2="177.9"/><polyline class="cls-2" points="202.22 183.13 202.22 145.92 241.81 145.92"/><line class="cls-2" x1="243.1" y1="145.92" x2="243.1" y2="173.96"/><rect class="cls-5" x="46.24" y="107.13" width="56.18" height="6.15"/></svg>