<svg id="Layer_1" data-name="Layer 1" xmlns="http://www.w3.org/2000/svg" viewBox="0 0 300 300"><defs><style>.cls-1{fill:#fff;}.cls-2,.cls-3,.cls-4,.cls-5{fill:none;stroke-linejoin:round;stroke-width:2px;}.cls-2{stroke:#895d3b;}.cls-3{stroke:#009885;}.cls-3,.cls-5{stroke-linecap:round;}.cls-4,.cls-5{stroke:#00aed7;}</style></defs><circle class="cls-1" cx="150" cy="150" r="90"/><path class="cls-2" d="M57,119.5v76.88a6.23,6.23,0,0,0,6.23,6.23h62.34a6.23,6.23,0,0,0,6.23-6.23V119.5Z"/><path class="cls-2" d="M131.8,119.5h12.47v76.88a6.23,6.23,0,0,1-6.24,6.23H125.57"/><circle class="cls-2" cx="77.78" cy="129.89" r="2.08"/><circle class="cls-2" cx="111.02" cy="129.89" r="2.08"/><path class="cls-2" d="M77.78,129.89V115.34A16.62,16.62,0,0,1,94.4,98.72h0A16.62,16.62,0,0,1,111,115.34v14.55"/><path class="cls-2" d="M90.24,119.5v-4.16a16.63,16.63,0,0,1,16.63-16.62h0a16.62,16.62,0,0,1,16.62,16.62v4.16"/><polyline class="cls-3" points="102.71 192.22 94.4 185.99 102.71 179.76"/><path class="cls-3" d="M94.4,186h18.7a6.23,6.23,0,0,0,5.42-9.29l-5.42-9.41"/><polyline class="cls-3" points="70.1 164.41 79.66 160.33 80.9 170.64"/><path class="cls-3" d="M79.66,160.33l-9.35,16.19a6.19,6.19,0,0,0,0,6.2A6.32,6.32,0,0,0,75.64,186h10.8"/><polyline class="cls-3" points="110.76 149.27 109.52 159.58 99.97 155.5"/><path class="cls-3" d="M109.52,159.58l-9.35-16.19a6.17,6.17,0,0,0-5.36-3.11,6.27,6.27,0,0,0-5.5,3L84,152.74"/><path class="cls-4" d="M194,127.65H174.45v-7.82a3.91,3.91,0,0,1,3.91-3.91h11.73a3.91,3.91,0,0,1,3.91,3.91Z"/><line class="cls-5" x1="162.73" y1="174.56" x2="182.27" y2="174.56"/><line class="cls-5" x1="162.73" y1="186.29" x2="182.27" y2="186.29"/><line class="cls-5" x1="162.73" y1="198.02" x2="182.27" y2="198.02"/><path class="cls-5" d="M176.41,127.65v3.66a2,2,0,0,1-1.34,1.84c-7.29,2.66-12.34,8.38-12.34,15a14.66,14.66,0,0,0,5.47,11.06,4,4,0,0,1,.27,5.84l-2.78,2.7a9.75,9.75,0,0,0-3,7v31.05a7.82,7.82,0,0,0,7.82,7.82h27.36a7.82,7.82,0,0,0,7.82-7.82v-3.91"/><path class="cls-5" d="M177.74,140.5c-4.37,1.59-7.19,4.61-7.19,7.67"/><polyline class="cls-3" points="221.36 199.97 213.54 194.11 221.36 188.24"/><path class="cls-3" d="M213.55,194.11h17.58a5.87,5.87,0,0,0,5.11-8.74l-5.1-8.85"/><polyline class="cls-3" points="190.69 173.81 199.68 169.97 200.85 179.67"/><path class="cls-3" d="M199.68,170l-8.8,15.23a5.81,5.81,0,0,0,0,5.83,5.92,5.92,0,0,0,5,3.08h10.15"/><polyline class="cls-3" points="228.94 159.56 227.77 169.26 218.78 165.43"/><path class="cls-3" d="M227.77,169.27,219,154a5.8,5.8,0,0,0-5-2.92,6,6,0,0,0-5.18,2.81l-5,8.91"/><path class="cls-3" d="M205.68,147.2c-.47-6.23-5.37-11.52-12.3-14a2,2,0,0,1-1.33-1.84v-3.66"/></svg>