<svg id="Layer_1" data-name="Layer 1" xmlns="http://www.w3.org/2000/svg" viewBox="0 0 300 300"><defs><style>.cls-1{fill:#fff;}.cls-2,.cls-3{fill:none;stroke-linecap:round;stroke-linejoin:round;stroke-width:2px;}.cls-2{stroke:#009885;}.cls-3{stroke:#00aed7;}</style></defs><circle class="cls-1" cx="136.73" cy="145.92" r="90"/><line class="cls-2" x1="97" y1="175.02" x2="97" y2="206.27"/><path class="cls-2" d="M85,143.77v60.1a2.4,2.4,0,0,0,2.41,2.4h19.23a2.4,2.4,0,0,0,2.41-2.4v-60.1l18.85-32.15a4.49,4.49,0,0,0-2.57-6,5.06,5.06,0,0,0-6.37,2.76l-17.75,28.53H92.74L75.07,108.36a5.06,5.06,0,0,0-6.37-2.76,4.49,4.49,0,0,0-2.57,6L85,143.77"/><path class="cls-2" d="M106.11,124.75c0,6.83-4.08,11.38-9.11,11.38s-9.1-4.55-9.1-11.38a9.11,9.11,0,0,1,18.21,0Z"/><line class="cls-3" x1="159.51" y1="175.02" x2="159.51" y2="206.27"/><path class="cls-3" d="M147.49,143.77v60.1a2.4,2.4,0,0,0,2.41,2.4h19.23a2.39,2.39,0,0,0,2.4-2.4v-60.1l18.86-32.15a4.49,4.49,0,0,0-2.58-6,5.05,5.05,0,0,0-6.36,2.76L163.7,136.89h-8.45l-17.67-28.53a5.06,5.06,0,0,0-6.37-2.76,4.49,4.49,0,0,0-2.57,6l18.85,32.15"/><path class="cls-3" d="M168.61,124.75c0,6.83-4.07,11.38-9.1,11.38s-9.1-4.55-9.1-11.38a9.1,9.1,0,0,1,18.2,0Z"/><line class="cls-2" x1="222.02" y1="175.02" x2="222.02" y2="206.27"/><path class="cls-2" d="M210,143.77v60.1a2.4,2.4,0,0,0,2.4,2.4h19.24a2.39,2.39,0,0,0,2.4-2.4v-60.1l18.86-32.15a4.49,4.49,0,0,0-2.58-6,5,5,0,0,0-6.36,2.76L226.2,136.89h-8.44l-17.67-28.53a5.06,5.06,0,0,0-6.37-2.76,4.5,4.5,0,0,0-2.58,6L210,143.77"/><path class="cls-2" d="M231.12,124.75c0,6.83-4.07,11.38-9.1,11.38s-9.1-4.55-9.1-11.38a9.1,9.1,0,1,1,18.2,0Z"/></svg>