<svg id="Layer_1" data-name="Layer 1" xmlns="http://www.w3.org/2000/svg" viewBox="0 0 300 300"><defs><style>.cls-1{fill:#fff;}.cls-2,.cls-3,.cls-4{fill:none;stroke-linecap:round;stroke-linejoin:round;stroke-width:2px;}.cls-2{stroke:#00aed7;}.cls-3{stroke:#895d3b;}.cls-4{stroke:#e34526;}</style></defs><circle class="cls-1" cx="147.93" cy="150" r="90"/><line class="cls-2" x1="217.5" y1="158.86" x2="237.66" y2="158.86"/><line class="cls-2" x1="227.13" y1="144.89" x2="244.68" y2="144.89"/><line class="cls-2" x1="209.53" y1="176.11" x2="229.69" y2="176.11"/><line class="cls-2" x1="119.93" y1="134.54" x2="249.53" y2="134.54"/><line class="cls-2" x1="133.06" y1="144.89" x2="155.38" y2="144.89"/><path class="cls-3" d="M50.47,105.21c74.23,0,47,92.72,194.21,92.72"/><line class="cls-2" x1="171.97" y1="144.89" x2="203.84" y2="144.89"/><line class="cls-2" x1="161.89" y1="158.86" x2="182.05" y2="158.86"/><line class="cls-4" x1="181.27" y1="126.03" x2="181.27" y2="105.26"/><polyline class="cls-4" points="174.8 115.2 181.27 105.26 187.9 115.2"/><path class="cls-3" d="M50.47,137.06c74.23,0,47,70.3,194.21,70.3"/><path class="cls-3" d="M50.47,168.76c74.23,0,47,45.49,194.21,45.49"/></svg>