<svg id="Layer_1" data-name="Layer 1" xmlns="http://www.w3.org/2000/svg" viewBox="0 0 300 300"><defs><style>.cls-1{fill:#fff;}.cls-2,.cls-3{fill:none;stroke-linejoin:round;stroke-width:2px;}.cls-2{stroke:#009885;}.cls-3{stroke:#00aed7;stroke-linecap:round;}</style></defs><circle class="cls-1" cx="146.12" cy="150" r="90"/><polygon class="cls-2" points="121.56 167.96 105.15 151.56 94.22 162.49 121.56 189.83 170.76 140.62 159.82 129.69 121.56 167.96"/><path class="cls-3" d="M92.65,184.36a30.07,30.07,0,0,0,28.91,21.87"/><path class="cls-3" d="M148.37,141.14c-11.85-17.13-26.81-32.69-26.81-44.25,0,19.13-41,49.2-41,79.27a41,41,0,0,0,82,0,37.74,37.74,0,0,0-1.33-9.61"/><polygon class="cls-2" points="194.67 167.96 178.27 151.56 167.34 162.49 194.67 189.83 243.88 140.62 232.94 129.69 194.67 167.96"/><path class="cls-3" d="M194.67,206.23a30,30,0,0,1-27.2-17.31"/><path class="cls-3" d="M162.55,201.64a41,41,0,0,0,73.13-25.48,37.74,37.74,0,0,0-1.33-9.61"/><path class="cls-3" d="M221.49,141.14c-11.85-17.13-26.82-32.69-26.82-44.25,0,9.56-10.25,21.86-20.5,35.53"/></svg>