<svg id="Layer_1" data-name="Layer 1" xmlns="http://www.w3.org/2000/svg" viewBox="0 0 300 300"><defs><style>.cls-1{fill:#fff;}.cls-2,.cls-4,.cls-5{fill:none;stroke-linecap:round;stroke-linejoin:round;stroke-width:2px;}.cls-2{stroke:#6d6e70;}.cls-3{fill:#6d6e70;}.cls-4{stroke:#32b14a;}.cls-5{stroke:#a87c4f;}</style></defs><circle class="cls-1" cx="150" cy="150" r="90"/><path class="cls-2" d="M135,164.63c22,0,36.72,8.53,42,16.93l-6.81,5.79,6.81,5.43c-7.93,8.17-20,16.93-42,16.93-29.73,0-41.87-22.72-41.87-22.72S105.67,164.63,135,164.63Z"/><path class="cls-2" d="M66.7,171.51a.86.86,0,0,1,.16-.48.66.66,0,0,1,.49-.17c10.16-.38,20.31,6,25.77,16.31-5.46,10.26-15.61,16.69-25.77,16.31a.66.66,0,0,1-.49-.17.86.86,0,0,1-.16-.48c-.7-5,5-11.7,8.34-15.66C71.75,183.21,66,176.47,66.7,171.51Z"/><path class="cls-2" d="M150.38,176.52c.91,4,2.11,17.75,1.23,21.76"/><circle class="cls-3" cx="161.61" cy="182.12" r="2.95"/><path class="cls-2" d="M149.11,165.9c-13.87-5.84-27.17-9.45-33.44-8.73-2.81.33-2.79,4.43.29,10"/><path class="cls-2" d="M143.3,185.39S130,195.75,132.91,195.75a72,72,0,0,0,10.9-1"/><path class="cls-2" d="M151.37,207.83c-13.86,5.84-29.43,9.24-35.7,8.51-2.81-.32-2.79-4.43.29-10"/><path class="cls-4" d="M195.34,141.08s-5.15-13.6,5.85-26.48"/><path class="cls-4" d="M196.59,120.61c-4.05-3-5.44-7.83-1.89-12.63S207,98.64,213.58,97.65c1,6.59-.8,16.26-4.35,21.07S200.65,123.61,196.59,120.61Z"/><path class="cls-4" d="M176.37,106.19c8.55,8.46,33.27,49.9,21.85,82.64"/><path class="cls-4" d="M158.31,87.36c8.42.12,20.1,4.31,25.36,9.73s4.34,11.68-.22,16.12-10.87,5.18-16.13-.23-9.13-17.2-9-25.62"/><path class="cls-4" d="M183.32,133.68c-.39,5-3.75,8.76-9.71,8.29s-14.43-5.46-18.76-10.54c5.07-4.33,14.22-7.94,20.18-7.47S183.72,128.64,183.32,133.68Z"/><path class="cls-4" d="M174.46,132.86c8.72.22,18.74,3.2,20.88,8.22"/><path class="cls-5" d="M142.93,128c0,7.47-5.12,13.53-11.45,13.53S120,135.45,120,128s5.13-16.24,11.46-16.24S142.93,120.51,142.93,128Z"/><path class="cls-5" d="M109.47,133.79c2.63,7,0,14.46-6,16.69S90.66,148.85,88,141.86s-.92-17,5-19.23S106.84,126.8,109.47,133.79Z"/><path class="cls-5" d="M118.68,105.81c-4.87,5.67-12.7,6.92-17.51,2.8s-4.75-12,.12-17.72,14.46-9,19.26-4.87S123.54,100.14,118.68,105.81Z"/></svg>