<?xml version="1.0" encoding="utf-8"?>
<svg id="master-artboard" viewBox="0 0 2319.724365234375 1855.958984375" version="1.1" xmlns="http://www.w3.org/2000/svg" x="0px" y="0px" style="enable-background:new 0 0 336 235.2;" width="2319.724365234375px" height="1855.958984375px"><rect id="ee-background" x="0" y="0" width="2319.724365234375" height="1855.958984375" style="fill: white; fill-opacity: 0; pointer-events: none;"/><g transform="matrix(0.8879650463388753, 0, 0, 0.8879650463388753, 816.30483340908, 311.1766780378437)"><g> <g id="XMLID_2_" transform="matrix(1.881863355636597, 0, 0, 1.881863355636597, -231.88353078087175, -359.23818312702645)"> <path fill="#479FDC" d="M331.818,460.483c35.348-0.012,70.704-0.051,106.052,0.02c-0.008,1.006-0.016,2.017-0.024,3.031 c-35.336,0.032-70.676,0.004-106.016,0.012C331.795,462.52,331.791,461.501,331.818,460.483z"/> <path fill="#6584A5" d="M331.806,453.661c13.484-0.051,98.522-0.042,106.068,0.008c-0.012,1.022-0.016,2.044-0.024,3.07 c-35.34-0.048-70.684-0.055-106.024,0.004C331.791,455.713,331.795,454.683,331.806,453.661z"/> <path fill="#728EB0" d="M331.826,440c35.34,0.036,70.68,0.032,106.02,0c0.012,1.022,0.016,2.044,0.024,3.07 c-15.378,0.082-99.408,0.052-106.084,0.012C331.795,442.052,331.802,441.022,331.826,440z"/> <path fill="#355278" d="M331.767,446.858c13.678-0.067,102.314-0.166,106.135,0.02c-0.048,0.998-0.048,2.005-0.008,3.015 c-15.343,0.11-98.496,0.086-106.119-0.004C331.802,448.875,331.802,447.865,331.767,446.858z"/> <path fill="#B7D9EE" d="M437.87,460.503c-35.348-0.071-70.704-0.032-106.052-0.02c-0.028,1.018-0.024,2.036,0.012,3.063 c35.34-0.008,70.68,0.02,106.016-0.012C437.855,462.52,437.862,461.509,437.87,460.503z M330.582,459.211 c13.76-0.1,99.659-0.086,108.552-0.008c0.083,1.866,0.055,3.732,0.02,5.602c-13.869,0.092-101.78,0.061-108.564,0.028 C330.519,462.955,330.527,461.081,330.582,459.211z"/> <path fill="#1C4C82" d="M439.122,451.196c-36.168-0.004-72.34,0.055-108.512-0.032c-0.103-1.858-0.095-3.716-0.008-5.566 c36.18,0.008,72.36,0,108.54,0C439.202,447.46,439.225,449.33,439.122,451.196z M331.767,446.858 c0.036,1.006,0.036,2.017,0.008,3.031c7.816,0.092,91.158,0.111,106.119,0.004c-0.04-1.01-0.04-2.017,0.008-3.015 C434.051,446.691,345.628,446.79,331.767,446.858z"/> <path fill="#AFD9F2" d="M331.826,456.743c35.34-0.059,70.684-0.052,106.024-0.004c0.008-1.026,0.012-2.048,0.024-3.07 c-7.481-0.049-92.452-0.06-106.068-0.008C331.795,454.683,331.791,455.713,331.826,456.743z M439.142,458.031 c-36.184,0.044-72.368,0.055-108.552-0.008c-0.036-1.898-0.139-3.807,0.071-5.697c36.14,0.02,72.285,0.016,108.429,0.004 C439.253,454.223,439.194,456.129,439.142,458.031z"/> <path fill="#7490B7" d="M330.578,438.78c36.196-0.02,72.392-0.036,108.588,0.008c0.024,1.854,0.036,3.712-0.024,5.57 c-13.621,0.087-99.876,0.069-108.56,0.012C330.527,442.504,330.535,440.642,330.578,438.78z M331.787,443.083 c7.06,0.043,90.869,0.069,106.084-0.012c-0.008-1.026-0.012-2.048-0.024-3.07c-35.34,0.032-70.68,0.036-106.02,0 C331.802,441.022,331.795,442.052,331.787,443.083z"/> </g> <path fill="#408DC1" d="M331.822,433.162c35.348-0.016,70.692-0.04,106.04,0.012c-0.004,1.038-0.004,2.076,0,3.122 c-14.876,0.058-99.116,0.043-106.048,0.004C331.791,435.25,331.795,434.204,331.822,433.162z" transform="matrix(1.881863355636597, 0, 0, 1.881863355636597, -231.88353078087175, -359.23818312702645)"/> <path fill="#355278" d="M136.901,408.412c-4.929-0.052-9.857-0.055-14.782,0.004c-0.143-37.38,0.008-74.773-0.075-112.157 c4.972-0.024,9.948-0.055,14.924,0.02C136.877,333.659,137.016,371.035,136.901,408.412z" transform="matrix(1.881863355636597, 0, 0, 1.881863355636597, -231.88353078087175, -359.23818312702645)"/> <path fill="#194871" d="M274.462,47.392c20.222,0.278,49.884,0.848,49.884,0.848c7.495,18.325,0.43,32.544-3.154,35.879 c-9.833-1.504-47.075-6.136-49.896-6.228c0.798-1.926,2.956-5.164,2.861-12.654C274.803,52.134,274.009,52.88,274.462,47.392z" transform="matrix(1.881863355636597, 0, 0, 1.881863355636597, -231.88353078087175, -359.23818312702645)"/> <path fill="#51A0D6" d="M221.293,32.119c8.613,7.402,3.618,39.247-4.992,48.585c-6.89,6.874-12.58-3.521-14.477-5.341 c-2.587-2.916-6.739-3.451-10.4-3.772c-12.356-1.505-26.962-2.122-35.348-1.957c-3.213,0.317-6.474,0.511-9.679,0.04 c-0.67,0.812-0.947-0.055-1.173-0.487l0.606,0.654c8.922-7.1,7.164-34.043-1.121-36.14c19.044-14.052,39.293,12.446,59.813,1.177 C214.137,30.237,216.235,27.769,221.293,32.119z" transform="matrix(1.881863355636597, 0, 0, 1.881863355636597, -231.88353078087175, -359.23818312702645)"/> <path fill="#88A3BD" d="M149.583,43.474c3.339,15.725-3.706,32.685-9.445,21.941C131.955,48.638,143.857,20.802,149.583,43.474z" transform="matrix(1.881863355636597, 0, 0, 1.881863355636597, -231.88353078087175, -359.23818312702645)"/> <path fill="#355278" d="M179.111,278.993c42.321,0.075,84.642,0.02,126.963,0.028c0.055,3.154,0.052,6.307-0.004,9.461 c-42.321,0.008-84.642-0.036-126.963,0.02C179.02,285.332,179.012,282.158,179.111,278.993z" transform="matrix(1.881863355636597, 0, 0, 1.881863355636597, -231.88353078087175, -359.23818312702645)"/> <path fill="#728EB0" d="M279.826,215.012c-40.242,0.017-73.442,0.198-73.442,0.198c0.005-0.341-2.278-67.412-2.278-67.412 c39.016-3.302,64.677-0.915,72.566-0.951C276.747,147.3,279.802,214.738,279.826,215.012z" transform="matrix(1.881863355636597, 0, 0, 1.881863355636597, -231.88353078087175, -359.23818312702645)"/> <path fill="#355278" d="M303.681,254.33c-0.103,7.579-0.016,15.162-0.04,22.745c-14.089,0.051-110.56,0.047-121.943,0.004 c-0.024-7.583,0.059-15.166-0.036-22.745C186.721,254.189,298.022,254.205,303.681,254.33z" transform="matrix(1.881863355636597, 0, 0, 1.881863355636597, -231.88353078087175, -359.23818312702645)"/> <path fill="#88A3BD" d="M280.104,240.475c-22.631-1.569-26.282-4.697-80.831,0.131c-0.483-6.058-0.258-12.143-0.741-18.197 c1.726,0.048,76.265,0.758,87.265,1.01c-0.111,5.82-0.004,11.644-0.052,17.464C283.867,240.665,281.954,240.923,280.104,240.475z" transform="matrix(1.881863355636597, 0, 0, 1.881863355636597, -231.88353078087175, -359.23818312702645)"/> <path fill="#2263A5" d="M273.119,46.667c-0.549,7.139,1.226,22.135-2.322,29.175c-5.677,11.176-9.602,13.105-13.015,14.869 c-0.289-4.414-0.337-8.839-0.269-13.26c-2.046-0.784-17.599-0.714-17.872-0.717c-6.85-0.083-7.7,4.791-10.721,6.343 c-3.669,1.919-9.637,0.476-13.534-0.083c-0.555-0.206,0.674-0.353,0.662-0.325c9.603-7.473,15.634-42.789,6.327-51.33 C273.5,34.969,272.501,30.717,273.119,46.667z" transform="matrix(1.881863355636597, 0, 0, 1.881863355636597, -231.88353078087175, -359.23818312702645)"/> <path fill="#4EA5E0" d="M303.78,252.915c-40.697-0.02-81.393,0.087-122.09,0.028c0.048-2.936-0.044-5.879,0.055-8.815 c92.263-7.913,51.376-3.036,90.343-2.841c0,0,31.326,2.662,31.648,2.662C303.796,246.937,303.808,249.924,303.78,252.915z" transform="matrix(1.881863355636597, 0, 0, 1.881863355636597, -231.88353078087175, -359.23818312702645)"/> <path fill="#7CBEE4" d="M221.67,144.554c-0.031-0.226-2.228-57.201-2.203-59.504c3.467,0.174,7.278,0.899,10.416-1.034 c2.393-1.244,3.288-4.279,5.939-5.146c4.262-2.017,16.217-0.355,20.428-0.42c0.167,13.66,2.108,65.544,2.128,66.017 C258.36,144.466,221.67,144.554,221.67,144.554z" transform="matrix(1.881863355636597, 0, 0, 1.881863355636597, -231.88353078087175, -359.23818312702645)"/> <path fill="#9CB9D5" d="M281.094,217.175c1.331,1.696,2.857,3.225,4.168,4.937c-48.96-0.77-74.756-0.748-85.537-0.891 c7.57-5.53,5.327-4.507,7.86-4.647C225.132,216.817,278.904,215.115,281.094,217.175z" transform="matrix(1.881863355636597, 0, 0, 1.881863355636597, -231.88353078087175, -359.23818312702645)"/> <path fill="#6584A5" d="M433.366,424.628c1.658,1.216,0.552,3.454,1.252,7.266c-5.616-0.001-91.888-0.046-98.196,0.103 c2.014-0.047,4.841-3.668,5.855-5.139c1.701-2.466,2.269-4.68,2.408-7.68c0.23-4.97-0.841-10.002-3.103-14.436 c-2.217-4.346-6.514-6.859-10.834-8.838c-11.81-5.197-20.76-4.74-48.565,6.505c-14.259,5.547-50.076,11.659-97.249-0.238 c-15.745-3.833-22.652-9.096-32.781-8.51c-11.352,0.919-7.993,10.53-11.699,14.588c-0.8,0.178-1.632,0.689-2.452,0.372 c0,0,0.172,6.603,0.25-106.052c0.258-0.4-0.685-1.41-0.17-1.418c5.569,15.344,25.415,16.804,37.357,7.706 c9.809-7.294,9.125-17.998,9.516-19.16c39.009,0.083,78.045,0.004,117.066,0.04c6.75,15.076,20.619,11.629,53.791,39.29 c19.972,16.493,45.846,46.107,55.055,71.631C415.676,414.491,426.213,418.217,433.366,424.628z" transform="matrix(1.881863355636597, 0, 0, 1.881863355636597, -231.88353078087175, -359.23818312702645)"/> <g transform="matrix(1.2951096296310423, 0, 0, 1.2951096296310423, -3.667845520359606, -107.73599540485213)">  <g transform="matrix(-3.3477258682250977, -0.44164457917213434, 0.44164457917213434, -3.3477258682250977, 2279.1048681907187, 5284.841215900283)"> <path fill="#305B7B" d="M725.349,1315.544l15.542,21.006l8.1-24.845c3.104-9.524-4.995-19.075-14.969-17.454 C724.038,1295.873,719.399,1307.503,725.349,1315.544z"/> <path fill="#88A3BD" d="M730.01,1297.643c-2.018,1.687-4.196,4.499-4.718,7.19c-0.303,1.524,0.079,2.048-0.425,2.6l-0.043,0.007 C723.354,1306.594,725.024,1300.407,730.01,1297.643z"/> </g>   <g transform="matrix(16.857538223266605, 0, 0, 16.857538223266605, -8034.186779985084, -17266.97754624011)"> <path fill="#9CB9D5" d="M498.403,1089.429l-2.614-10.805l-7.287,8.396c-2.793,3.218-1.2,8.302,2.977,9.318 C495.661,1097.355,499.404,1093.565,498.403,1089.429z"/> <path fill="#224A7B" d="M493.613,1095.672c1.07-0.327,2.389-1.068,3.039-2.036c0.371-0.547,0.308-0.816,0.597-0.948l0.018,0.004 C497.704,1093.267,496.025,1095.415,493.613,1095.672z"/> </g> <g transform="matrix(-7.3053083232094345, 2.1248934914276143, -2.1248934914276143, -7.3053083232094345, 3481.628010848222, 10102.730439787578)"> <path fill="#1A4875" d="M72.205,1276.631l-2.857,10.947l10.576-4.021c4.054-1.542,5.072-6.867,1.816-9.788 C78.48,1270.844,73.299,1272.441,72.205,1276.631z"/> <path fill="#728EB0" d="M79.506,1273.338c-1.117-0.222-2.657-0.192-3.706,0.363c-0.596,0.312-0.669,0.583-0.992,0.563 l-0.014-0.013C74.68,1273.526,77.219,1272.408,79.506,1273.338z"/> </g>   <g transform="matrix(-5.844661380871147, -5.317228205108817, 5.317228205108817, -5.844661380871147, -1417.930868541547, 8095.726448418603)"> <path fill="#6584A5" d="M437.451,832.91l11.689,4.184l-3.37-11.95c-1.292-4.581-7.015-6.21-10.524-2.934 C431.733,825.491,432.976,831.309,437.451,832.91z"/> <path fill="#6AAFDE" d="M434.559,824.611c-0.351,1.199-0.467,2.885,0.038,4.086c0.283,0.682,0.573,0.788,0.52,1.139l-0.015,0.014 C434.297,829.904,433.321,827.02,434.559,824.611z"/> </g> <g transform="matrix(1.050946479465608, 1.4525442084413187, -1.4525442084413187, 1.050946479465608, 1839.7725781673796, -352.1173448177067)"> <path fill="#51A0D6" d="M181.719,978.107l-47.204,8.641l34.416,33.447c13.194,12.819,35.491,7.189,40.884-10.568 C215.214,991.852,199.788,974.799,181.719,978.107z"/> <path fill="#728EB0" d="M207.466,1000.268c-1.15-4.691-4.025-10.557-8.04-13.594c-2.268-1.732-3.441-1.526-3.943-2.803 l0.023-0.076C198.09,982.054,206.941,989.811,207.466,1000.268z"/> </g>           <g transform="matrix(2.7723050117492676, -1.658830165863037, 1.658830165863037, 2.7723050117492676, -2014.925461385796, -1913.397873495171)"> <g> <path fill="#4EA5E0" d="M172.56,1076.188c-0.921-3.306-1.93-6.587-2.873-9.887c-0.4-1.92,0.067-3.938,0.984-5.644 c1.38-2.412,3.402-4.403,5.64-6.024c-0.379-1.287-0.759-2.577-1.133-3.867c2.783,0.276,5.49,1.032,8.172,1.794 c2.018,0.579,4.008,1.251,6,1.911c-2.477,3.363-5.012,6.712-7.005,10.397c-0.715,1.273-1.28,2.621-1.925,3.928 c-0.417-1.411-0.839-2.822-1.237-4.239c-2.145,1.41-4.082,3.19-5.511,5.333C172.51,1071.766,172.453,1074.052,172.56,1076.188z"/> <path fill="#355278" d="M176.801,1081.21c-1.293-1.288-2.56-2.724-3.069-4.52c-0.464-1.566-0.376-3.24,0.028-4.808 c1.006,0.553,1.979,1.166,3.036,1.625c0.902,3.107,1.828,6.208,2.722,9.317C178.434,1082.671,177.578,1081.923,176.801,1081.21z "/> </g> <g> <path fill="#6584A5" d="M206.267,1049.1c3.324,0.855,6.67,1.622,9.999,2.456c1.863,0.614,3.377,2.027,4.396,3.674 c1.399,2.401,2.112,5.148,2.397,7.897c1.305,0.315,2.611,0.631,3.916,0.952c-1.631,2.272-3.639,4.238-5.64,6.18 c-1.51,1.458-3.087,2.845-4.655,4.241c-1.674-3.827-3.307-7.697-5.502-11.265c-0.745-1.256-1.63-2.419-2.439-3.631 c1.431,0.344,2.863,0.684,4.289,1.048c-0.148-2.563-0.721-5.13-1.863-7.439C210.121,1051.268,208.17,1050.076,206.267,1049.1z"/> <path fill="#355278" d="M199.797,1050.261c1.762-0.476,3.639-0.855,5.449-0.398c1.588,0.381,2.994,1.295,4.15,2.428 c-0.982,0.595-1.999,1.131-2.925,1.817c-3.141-0.773-6.29-1.521-9.43-2.302C197.716,1050.946,198.791,1050.578,199.797,1050.261 z"/> </g> <g> <path fill="#355278" d="M212.872,1091.835c-2.403,2.451-4.739,4.965-7.126,7.432c-1.463,1.306-3.444,1.911-5.38,1.97 c-2.779,0.011-5.514-0.745-8.037-1.872c-0.926,0.972-1.852,1.945-2.783,2.915c-1.153-2.548-1.851-5.271-2.532-7.974 c-0.507-2.037-0.921-4.096-1.345-6.152c4.151,0.463,8.319,0.984,12.507,0.868c1.46-0.017,2.91-0.202,4.364-0.297 c-1.014,1.067-2.024,2.137-3.052,3.19c2.294,1.153,4.804,1.941,7.374,2.106C209.068,1094.089,211.076,1092.996,212.872,1091.835 z"/> <path fill="#C1DFF1" d="M215.101,1085.652c-0.469,1.764-1.079,3.579-2.38,4.917c-1.124,1.185-2.618,1.945-4.178,2.379 c-0.024-1.148,0.02-2.297-0.111-3.442c2.24-2.334,4.462-4.687,6.708-7.016C215.549,1083.507,215.33,1084.622,215.101,1085.652z"/> </g> </g> <g transform="matrix(3.2370960785917755, -1.0515357478165852, 1.0515357478165852, 3.2370960785917755, -3167.4842433834506, -2158.0062843543174)"> <g> <path fill="#305B7B" d="M752.751,1247.472c0.515,3.601,1.125,7.188,1.664,10.785c0.156,2.073-0.611,4.13-1.808,5.797 c-1.781,2.346-4.179,4.161-6.754,5.558c0.222,1.405,0.444,2.812,0.661,4.22c-2.887-0.672-5.628-1.838-8.342-3.006 c-2.041-0.885-4.041-1.864-6.044-2.831c3.064-3.195,6.188-6.367,8.788-9.966c0.926-1.24,1.704-2.579,2.562-3.865 c0.245,1.541,0.495,3.08,0.719,4.624c2.448-1.187,4.728-2.793,6.523-4.85C752.197,1252.126,752.57,1249.732,752.751,1247.472z"/> <path fill="#305B7B" d="M748.983,1241.613c1.183,1.531,2.317,3.214,2.605,5.171c0.273,1.71-0.049,3.457-0.689,5.049 c-0.982-0.719-1.92-1.497-2.968-2.124c-0.522-3.389-1.07-6.775-1.583-10.166 C747.466,1239.854,748.264,1240.757,748.983,1241.613z"/> </g> <g> <path fill="#387CAF" d="M713.611,1271.319c-3.376-1.354-6.787-2.619-10.172-3.952c-1.874-0.901-3.271-2.594-4.116-4.464 c-1.141-2.715-1.514-5.7-1.436-8.628c-1.328-0.51-2.657-1.022-3.985-1.538c2.025-2.165,4.406-3.955,6.775-5.721 c1.787-1.325,3.635-2.567,5.474-3.818c1.235,4.251,2.42,8.542,4.237,12.594c0.611,1.422,1.382,2.766,2.066,4.151 c-1.457-0.558-2.915-1.112-4.364-1.69c-0.196,2.714,0.055,5.491,0.938,8.074 C709.858,1268.512,711.745,1270.033,713.611,1271.319z"/> <path fill="#9CB9D5" d="M720.57,1270.985c-1.917,0.259-3.942,0.4-5.781-0.329c-1.617-0.618-2.969-1.771-4.028-3.121 c1.113-0.491,2.256-0.914,3.324-1.509c3.196,1.243,6.403,2.461,9.595,3.712C722.851,1270.552,721.67,1270.79,720.57,1270.985z"/> </g> <g> <path fill="#6584A5" d="M712.529,1225.499c2.861-2.247,5.662-4.568,8.509-6.833c1.717-1.172,3.882-1.536,5.924-1.333 c2.922,0.369,5.693,1.539,8.19,3.07c1.106-0.895,2.213-1.791,3.324-2.682c0.862,2.836,1.223,5.793,1.568,8.728 c0.254,2.21,0.406,4.431,0.57,6.65c-4.299-1.056-8.608-2.175-13.025-2.627c-1.537-0.182-3.086-0.186-4.628-0.286 c1.212-0.982,2.42-1.969,3.646-2.935c-2.252-1.526-4.782-2.698-7.461-3.224C716.836,1223.652,714.576,1224.526,712.529,1225.499 z"/> <path fill="#70C0F2" d="M709.339,1231.692c0.735-1.79,1.625-3.614,3.175-4.842c1.344-1.091,3.018-1.685,4.717-1.928 c-0.132,1.21-0.336,2.411-0.355,3.633c-2.674,2.146-5.333,4.314-8.012,6.453 C708.574,1233.885,708.957,1232.743,709.339,1231.692z"/> </g> </g>             <path fill="#9CB9D5" d="M93.572,1085.511c-0.452-0.179-0.933-0.299-1.432-0.356l-5.334-0.617c0,0-0.001,0-0.001,0l-0.277-0.032 l-0.032,0.277c0,0,0,0.001,0,0.001l-0.399,3.445c0,0,0,0.001,0,0.002c0,0.001,0,0.001,0,0.002l-0.218,1.886 c-0.058,0.498-0.051,0.995,0.02,1.475c0.027,0.184,0.064,0.367,0.11,0.549c0.001,0.003,0.001,0.005,0.002,0.008 c0.197,0.771,0.56,1.511,1.05,2.129c0.607,0.766,1.441,1.385,2.349,1.745c0.908,0.36,1.941,0.479,2.907,0.336 c0.874-0.129,1.738-0.479,2.462-0.994l1.499,1.891c0.096,0.121,0.272,0.142,0.393,0.046c0.121-0.096,0.141-0.272,0.045-0.393 l-1.499-1.891c0.667-0.587,1.205-1.348,1.53-2.17c0.36-0.908,0.479-1.941,0.336-2.907c-0.143-0.966-0.555-1.92-1.162-2.686 C95.315,1086.49,94.48,1085.87,93.572,1085.511z M92.235,1095.806c-0.871,0.129-1.801,0.021-2.619-0.303 c-0.593-0.235-1.151-0.592-1.621-1.034l6.054,0.7C93.491,1095.493,92.866,1095.713,92.235,1095.806z M94.19,1094.623l-6.761-0.782 c-0.325-0.43-0.583-0.921-0.759-1.437l6.343,0.734L94.19,1094.623z M92.521,1092.517l-6.013-0.696 c-0.022-0.103-0.041-0.207-0.056-0.31c-0.051-0.343-0.065-0.695-0.043-1.05l4.934,0.571L92.521,1092.517z M90.852,1090.412 l-4.386-0.507l0.154-1.331l3.054,0.353L90.852,1090.412z M89.183,1088.306l-2.498-0.289l0.289-2.498L89.183,1088.306z M96.53,1090.023c0.129,0.871,0.021,1.801-0.303,2.619c-0.29,0.732-0.767,1.41-1.358,1.937l-1.49-1.88c0,0,0,0,0-0.001 l-5.967-7.528l4.664,0.539c0.45,0.052,0.884,0.16,1.29,0.321c0.818,0.324,1.57,0.882,2.117,1.572 C96.029,1088.293,96.401,1089.152,96.53,1090.023z"/>              <g transform="translate(-91.831 484.51)"> <path fill="#7490B7" d="M647.705,416.438c0,0.003-0.466,0.584-0.469,0.587c-0.001-0.001-0.766-0.615-0.767-0.615 c-0.003,0.002-5.514,6.452-5.514,6.453c0,0.001,0.017-0.004,0.199-0.06c3.604-1.108,4.715-0.741,4.726-0.638 c0,0.001-5.353,1.839-5.355,1.841c-0.007,0.009-0.328,4.255-1.232,5.099c-0.119,0.111-0.092,0.567,0.287-5.185 c-1.005-0.834-2.992-2.498-3.545-3.702c-0.068-0.148-0.117-0.321-0.106-0.376c0.004-0.02,4.152,3.276,4.167,3.273 c0.001,0,5.515-7.389,5.516-7.391c0,0-0.165-0.134-0.368-0.296l-0.368-0.295c0.068-0.085,0.403-0.5,0.471-0.585 C645.352,414.549,647.705,416.435,647.705,416.438L647.705,416.438z M640.237,423.371c-0.251-0.113-0.512,0.127-0.421,0.386 c0.075,0.214,0.353,0.273,0.513,0.11C640.477,423.716,640.429,423.457,640.237,423.371L640.237,423.371z"/> </g>           <g transform="matrix(-5.057044982910156, 4.976382732391357, -4.976382732391357, -5.057044982910156, 5803.618702586989, 5812.529332763027)">       </g>  <g transform="matrix(5.687176399815855, -14.507583924494842, 14.507583924494842, 5.687176399815855, -24307.75790276299, -914.6980653202697)"> <path fill="#355278" d="M476.731,1521.071c-0.146,0.003-0.298,0.076-0.398,0.182c-0.568,0.604,0.177,1.052,0.583,1.376 c0.386,0.427,0.383,0.355,1.151,1.199c-0.678-0.5-0.881-0.694-1.349-1.045c-0.277-0.208-0.501-0.556-0.843-0.608 c-0.178-0.027-0.383,0.046-0.511,0.172h0c-0.882,0.869,1.638,1.98,2.293,3.067c-1.078-0.754-1.142-0.886-1.738-1.308 c-0.228-0.161-0.426-0.423-0.703-0.458c-0.178-0.023-0.383,0.046-0.511,0.172h0c-0.128,0.126-0.207,0.33-0.179,0.507 c0.098,0.632,1.146,1.194,1.45,1.734c0.164,0.292,0.276,0.628,0.515,0.865c0.284,0.282,0.682,0.42,1.038,0.604 c0.515,0.267,1.006,0.662,1.583,0.722c0.295,0.031,0.687,0.042,0.867-0.193c1.049,0.188,1.495-0.409,1.498-0.859 c0-0.078,0.02-0.178-0.008-0.194c0.195-0.006,0.378-0.049,0.54-0.145c0.064-0.038,0.29-0.241,0.371-0.405 c0.062-0.125,0.088-0.274,0.072-0.413c-0.013-0.122-0.023-0.297-0.057-0.445c0.23-0.084,0.425-0.219,0.461-0.459 c0.017-0.113,0.014-0.308-0.018-0.422c-0.215-0.759-0.373-0.632,0.59-1.703c0.106-0.022,0.154,0.003,0.433,0.304 c0.084-0.007,0.178,0.011,0.256-0.011c0.052-0.079,0.149-0.068,0.198-0.151c0.098-0.058,0.07-0.116-0.012-0.173l0.052-0.052 l0.056,0.033l0.848-0.892c0.356-0.36,0.12-1.231,0.178-1.333c0.035-0.062,0.051-0.192,0.051-0.192 c0.006-0.021,0.033-0.035,0.029-0.052c-0.365-0.604-2.4-2.568-3.184-3.092l-0.22,0.042l-0.032,0.035l-1.138,0.105l-1.049,0.985 l0.053,0.05c-0.055,0.05-0.039,0.035-0.075,0.068c-0.029-0.025-0.058-0.05-0.087-0.075c-0.043,0.072-0.15,0.126-0.145,0.212 c-0.089,0.075-0.057,0.188-0.061,0.291c-0.007,0.089,0.103,0.129,0.149,0.195c0.065,0.075,0.157,0.138,0.213,0.221 c-1.061,1.364-1.231,0.839-1.65,0.905c-0.367,0.057-0.676,0.241-0.705,0.606c-0.027,0.327,0.142,0.444,0.517,0.875 c-0.269-0.2-0.537-0.404-0.806-0.616C477.099,1521.149,476.934,1521.067,476.731,1521.071z M480.204,1526.685 c0.016,0.046,0.032,0.092,0.046,0.139c-0.104-0.039-0.207-0.078-0.31-0.12c-0.034-0.071-0.072-0.137-0.121-0.209 C479.941,1526.559,480.07,1526.624,480.204,1526.685z M480.997,1525.429c0.048,0.087,0.096,0.18,0.09,0.187 c-0.01,0.012-0.14-0.041-0.309-0.105c-0.06-0.098-0.123-0.199-0.187-0.3C480.741,1525.3,480.836,1525.358,480.997,1525.429z M480.436,1520.81c0.12,0.151,1.772,1.716,1.789,1.729c-0.374,0.555-0.622,0.889-0.708,1.557 c-0.307-0.506-2.073-2.551-2.084-2.544C480.12,1521.144,480.192,1521.139,480.436,1520.81z"/> <path fill="#C1DFF1" d="M485.762,1515.532l1.608,1.59C487.686,1516.126,486.756,1515.196,485.762,1515.532z"/> <path d="M 485.7619934082031 1515.531982421875 L 485.7619934082031 1515.531982421875 L 485.7619934082031 1515.531982421875 Z" fill="#3B79B4"/> <path fill="#7490B7" d="M484.586,1515.89l2.439,2.412c0.087,0.086,0.233,0.078,0.328-0.018l0.161-0.163 c0.094-0.095,0.101-0.242,0.014-0.328l-2.439-2.412c-0.087-0.086-0.233-0.077-0.327,0.018l-0.162,0.163 C484.506,1515.658,484.499,1515.804,484.586,1515.89z"/> <path fill="#6584A5" d="M483.851,1516.633l2.439,2.412c0.087,0.086,0.233,0.078,0.328-0.018l0.162-0.163 c0.094-0.095,0.101-0.242,0.014-0.328l-2.439-2.412l0,0c-0.087-0.086-0.233-0.077-0.328,0.018l-0.162,0.163 C483.77,1516.401,483.764,1516.548,483.851,1516.633z"/> <path fill="#728EB0" d="M483.115,1517.377l2.439,2.412c0.087,0.086,0.233,0.078,0.328-0.017l0.162-0.163 c0.094-0.095,0.1-0.242,0.014-0.328l-2.439-2.412c-0.087-0.086-0.233-0.078-0.327,0.018l-0.162,0.163 C483.035,1517.144,483.029,1517.291,483.115,1517.377z"/> </g>                                              <g transform="matrix(1, 0, 0, 1, -45.882577865232065, -22.83949361076668)"> <g transform="matrix(6.53874921798706, 2.5063052177429195, -2.5063052177429195, 6.53874921798706, 822.9128538706207, -4756.8309404612155)"> <path fill="#88A3BD" d="M274.617,783.724c1.399-0.403,4.923,1.419,6.035,2.196c-0.961,1.664-0.938,2.345,3.073,7.484 c0.104,0.135,0.164,2.643,0.12,2.894c-1.141-1.191-2.349-2.325-3.366-3.628c-0.692-0.856-1.04-1.597-1.253-1.921 c-1.423-0.99-4.659-2.273-5.305-5.249C273.703,784.721,273.832,783.882,274.617,783.724z"/> <path fill="#355278" d="M292.457,795.532c-0.431-0.527-1.69-2.123-1.757-2.81c-0.296-1.721-1.703-4.436-3.591-6.067 c-1.479-1.195-1.585-1.724-2.435-2.262c-2.058-1.237-3.876,1.106-3.248,3.203c0.1,0.427,0.4,0.762,0.558,1.164 c0.578,1.382,1.462,2.614,2.827,4.422c0.037,0.036,0.037,0.088,0.025,0.135c-0.378,1.614,0.662,3.851,0.798,4.363 c0.006-0.023,0.013-0.047,0.02-0.07c0.073,0.333,0.243,0.634,0.358,0.953c-0.22,1.55,0.296,2.509,0.851,4.464 c0.458-0.11,0.913-0.274,1.39-0.263c2.221-0.033,4.362,1.483,3.497,3.743c-0.014,0.036-3.104,6.396-5.29,9.42 c-0.303-0.299-0.302-0.774-0.186-1.157c0.782-1.644,1.582-3.28,2.36-4.926c-0.171-0.106-3.019-1.48-3.104-1.521 c0.015-0.037,1.317-2.71,1.645-3.029c0.704-0.71,2.098-0.914,3.099-0.981c-0.185-0.26-0.425-0.494-0.725-0.612 c-0.905-0.37-3.072,0.178-4.002,0.603c-4.846,2.101-3.934,8.661-13.603,12.597c-4.128,1.79-7.995,2.8-10.083,7.256 c-1.877,3.969-0.902,6.196,0.65,9.747c0.309,0.707,1.118,2.394,1.168,2.474l14.347-3.517c0.64-2.079,0.7-3.719,2.396-5.535 c1.179-1.137-0.354,0.161,5.177-3.052c11.739-6.746,11.26-10.958,10.123-15.471c0.015,0.016,0.031,0.032,0.049,0.049 c-0.33-1.477-0.544-5.941-1.547-10.034C293.685,797.922,294.507,798.146,292.457,795.532z" transform="matrix(1.0266984855695211, 0, 0, 1.0266984855695211, -7.436910901094899, -22.33002245688145)"/> <path fill="#305B7B" d="M288.394,805.072c0.097-0.024,1.091-0.333,2.176-0.328c0.08,0.176,0.217,0.321,0.278,0.506 c-0.664,1.374-1.321,2.753-1.987,4.126c-0.049,0.141-2.295-1.084-2.74-1.244c0.05-0.183,0.171-0.333,0.243-0.507 C287.469,805.505,287.272,805.549,288.394,805.072z"/> </g> <g transform="matrix(0.9931920243108231, 0, 0, 0.9931920243108231, 0.8517103466280602, -71.41831719742761)"> <path fill="#88A3BD" d="M226.449,799.179c-0.319,2.084-1.938,4.215-2.399,5.096c-0.04,0.392-0.005,1.2-0.223,2.283 c-0.299,1.625-0.847,3.189-1.307,4.773c-0.153-0.199-1.262-2.454-1.232-2.622c1.164-6.327,0.905-7.013-0.736-8.057 c0.63-1.208,3.891-6.034,5.296-4.477C226.451,796.817,226.585,798.304,226.449,799.179z"/> <path fill="#355278" d="M214.531,814.634c0.139-0.667,0.516-2.664,0.258-3.304c-0.534-1.663-0.541-4.721,0.379-7.04 c0.759-1.744,0.608-2.262,1.113-3.132c1.253-2.049,3.948-0.812,4.361,1.338c0.109,0.425-0.002,0.861,0.043,1.29 c0.126,1.493-0.088,2.994-0.462,5.228c-0.016,0.049,0.008,0.095,0.041,0.131c1.081,1.256,1.194,3.72,1.31,4.238 c-0.016-0.018-0.033-0.035-0.05-0.052c0.09,0.329,0.077,0.675,0.123,1.01c0.912,1.273,0.898,2.361,1.31,4.351 c-0.457,0.114-0.936,0.18-1.354,0.41c-1.984,0.998-3.181,3.333-1.37,4.936c0.029,0.026,5.711,4.235,9.047,5.906 c0.131-0.405-0.09-0.826-0.37-1.111c-1.454-1.096-2.92-2.177-4.371-3.276c0.103-0.173,1.992-2.709,2.049-2.784 c-0.031-0.026-2.421-1.794-2.859-1.925c-0.952-0.304-2.283,0.16-3.201,0.564c0.044-0.316,0.148-0.634,0.36-0.878 c0.631-0.746,2.806-1.263,3.827-1.316c5.268-0.378,7.494,5.86,17.886,4.878c4.488-0.322,8.384-1.215,12.295,1.77 c3.5,2.651,3.665,5.077,3.932,8.943c0.053,0.77,0.115,2.639,0.109,2.733l-14.347,3.517c-1.529-1.547-2.341-2.973-4.684-3.799 c-1.571-0.463,0.388-0.021-6.001-0.312c-13.528-0.552-15.051-4.509-16.131-9.035c-0.006,0.021-0.013,0.043-0.021,0.066 c-0.39-1.462-2.265-5.519-3.268-9.612C214.547,817.322,213.922,817.9,214.531,814.634z" transform="matrix(7.228254318237306, 0.9779291749000552, -0.9779291749000552, 7.228254318237306, -620.1322916112838, -4853.576620394986)"/> <path fill="#6584A5" d="M225.976,822.877c-0.327,0.355-1.745,2.473-1.854,2.371c-1.226-0.909-2.446-1.828-3.67-2.74 c-0.032-0.192,0.023-0.385,0.013-0.578c0.847-0.447,2.61-1.073,3.415-0.544C224.264,821.645,225.897,822.792,225.976,822.877z"/> <path d="M -168.85353088378906 1438.7313232421875 L -166.64039611816406 1443.1575927734375" style="fill: rgb(53, 82, 120); fill-opacity: 1; stroke: rgb(0, 0, 0); stroke-opacity: 1; stroke-width: 0; paint-order: fill;" transform="matrix(1.097223997116089, 0, 0, 1.097223997116089, -44.55227835460619, -129.61177914702836)"/></g> </g>                                    </g> </g></g></svg>