<svg id="Layer_1" data-name="Layer 1" xmlns="http://www.w3.org/2000/svg" viewBox="0 0 300 300"><defs><style>.cls-1{fill:#fff;}.cls-2,.cls-3,.cls-4,.cls-5{fill:none;stroke-linecap:round;stroke-linejoin:round;stroke-width:2px;}.cls-2{stroke:#895d3b;}.cls-3{stroke:#009885;}.cls-4{stroke:#e34526;}.cls-5{stroke:#00aed7;}</style></defs><circle class="cls-1" cx="134.22" cy="150" r="90"/><rect class="cls-2" x="64.95" y="119.45" width="85.91" height="22.4"/><line class="cls-2" x1="70.28" y1="142.39" x2="70.28" y2="184.56"/><line class="cls-2" x1="86.9" y1="180.25" x2="150.85" y2="180.25"/><polyline class="cls-2" points="91.74 185.81 91.74 205.14 150.85 205.14 150.85 142.17"/><rect class="cls-2" x="150.85" y="119.45" width="85.91" height="22.4"/><line class="cls-2" x1="156.19" y1="142.39" x2="156.19" y2="205.14"/><line class="cls-2" x1="168.8" y1="180.25" x2="236.76" y2="180.25"/><line class="cls-2" x1="236.76" y1="183.58" x2="236.76" y2="142.17"/><polyline class="cls-2" points="175.64 185.81 175.64 205.14 206.85 205.14"/><path class="cls-2" d="M178.86,174.44v-3.67a2.55,2.55,0,0,1,1.52-2.34,21.87,21.87,0,0,1,8.81-1.79,21.39,21.39,0,0,1,8.72,1.78,2.56,2.56,0,0,1,1.5,2.34v3.68"/><path class="cls-2" d="M194.28,156.37c0,3.85-2.3,6.42-5.14,6.42s-5.14-2.57-5.14-6.42a5.14,5.14,0,1,1,10.28,0Z"/><path class="cls-2" d="M80,196.76v-11.2a3.5,3.5,0,0,1-3.49-3.5V168.33a2.3,2.3,0,0,1,1.37-2.12,19.83,19.83,0,0,1,8-1.63,19.27,19.27,0,0,1,7.91,1.62,2.31,2.31,0,0,1,1.36,2.12v6.12"/><path class="cls-2" d="M90.53,154.62c0,3.49-2.09,5.82-4.66,5.82s-4.66-2.33-4.66-5.82a4.66,4.66,0,1,1,9.32,0Z"/><line class="cls-2" x1="116.15" y1="146.48" x2="116.15" y2="180.25"/><path class="cls-2" d="M99.26,174.44V170a2.09,2.09,0,0,1,1.25-1.93,18.05,18.05,0,0,1,7.25-1.47,17.64,17.64,0,0,1,7.18,1.46,2.12,2.12,0,0,1,1.23,1.93v5.55"/><path class="cls-2" d="M111.94,157.56c0,3.17-1.89,5.28-4.22,5.28s-4.23-2.11-4.23-5.28a4.23,4.23,0,1,1,8.45,0Z"/><line class="cls-2" x1="64.95" y1="142.28" x2="64.95" y2="180.25"/><polyline class="cls-2" points="207.68 167.41 207.68 171.73 231.84 171.73 231.84 163.11 214.85 163.11"/><polyline class="cls-2" points="207.68 163.11 231.84 163.11 219.76 156.49 207.68 163.11"/><line class="cls-2" x1="120.81" y1="156.7" x2="150.47" y2="156.7"/><line class="cls-2" x1="120.81" y1="168.53" x2="150.47" y2="168.53"/><line class="cls-3" x1="95.19" y1="137.03" x2="71.41" y2="137.03"/><polyline class="cls-3" points="146.28 125.32 146.28 137.03 103.67 137.03"/><line class="cls-4" x1="161.35" y1="123.89" x2="197.37" y2="123.89"/><polyline class="cls-4" points="205.96 123.89 231.84 123.89 231.84 134.51"/><polyline class="cls-2" points="45.66 193.25 45.66 220.74 41.23 220.74 41.23 197.55"/><polyline class="cls-2" points="74.71 207.32 74.71 220.74 78.66 220.74 78.66 211.34"/><polyline class="cls-2" points="8.24 207.32 8.24 220.74 12.18 220.74 12.18 211.34"/><rect class="cls-5" x="16.84" y="188.56" width="53.23" height="4.43"/><polyline class="cls-5" points="69.64 207.32 66.47 207.32 66.47 202.89 86.9 202.89 86.9 207.32 73.06 207.32"/><polyline class="cls-5" points="3.17 207.32 0 207.32 0 202.89 20.42 202.89 20.42 207.32 6.58 207.32"/><polyline class="cls-2" points="258.77 193.25 258.77 220.74 254.34 220.74 254.34 197.55"/><polyline class="cls-2" points="287.82 207.32 287.82 220.74 291.76 220.74 291.76 211.34"/><polyline class="cls-2" points="221.34 207.32 221.34 220.74 225.29 220.74 225.29 211.34"/><rect class="cls-5" x="229.94" y="188.56" width="53.23" height="4.43"/><polyline class="cls-5" points="282.74 207.32 279.58 207.32 279.58 202.89 300 202.89 300 207.32 286.16 207.32"/><polyline class="cls-5" points="216.27 207.32 213.1 207.32 213.1 202.89 233.53 202.89 233.53 207.32 219.69 207.32"/><polyline class="cls-3" points="105.03 123.89 68.85 123.89 68.85 132.35"/><polyline class="cls-4" points="156.19 129.65 156.19 137.03 180.08 137.03"/><line class="cls-4" x1="191.25" y1="137.03" x2="215.13" y2="137.03"/><line class="cls-3" x1="111.77" y1="123.89" x2="133" y2="123.89"/><path class="cls-2" d="M10.23,195.08l13.53,2.23a2.85,2.85,0,0,1,2.07,3L24.58,216.6l3.58,4.3"/><path class="cls-2" d="M4.4,200.07a5.89,5.89,0,0,1-2.77-5l-.41-16.72c-.09-3.44.57-5.42,1.93-8.58l.43-1.64a9.66,9.66,0,0,0-1-4,4.07,4.07,0,0,1,.7-4.72,5.1,5.1,0,0,1,3.79-1.57H8a4.37,4.37,0,0,1,4.37,4.36h0V167l-2.74,1.52"/><path class="cls-2" d="M26.91,186a2.24,2.24,0,0,0-1.64-2.51l-9.84,0-5-9.05"/><path class="cls-2" d="M7.17,181l4.31,7.17,2.22,0"/><polyline class="cls-2" points="19.8 210.34 19.8 218.38 28.16 220.9"/><path class="cls-2" d="M255.94,184.78v-6.1a2.32,2.32,0,0,1,1.38-2.13,19.8,19.8,0,0,1,8-1.62,19.47,19.47,0,0,1,7.91,1.61,2.32,2.32,0,0,1,1.36,2.12v6.12"/><path class="cls-2" d="M269.92,165.42c0,3.49-2.08,5.82-4.66,5.82s-4.66-2.33-4.66-5.82a4.66,4.66,0,0,1,9.32,0Z"/><path class="cls-2" d="M270.44,216.73l-1.26-16.54a2.76,2.76,0,0,1,2.72-2.66h0a2.56,2.56,0,0,1,2.56,2.66l.87,13.56,2.92,7Z"/><path class="cls-2" d="M262.69,197.53h0a2.55,2.55,0,0,1,2.55,2.66l.87,13.56,2.93,7-6.81-3.37"/><polyline class="cls-2" points="207.68 176.04 207.68 180.36 231.84 180.36 231.84 171.73 211.98 171.73"/><path class="cls-2" d="M137.94,160.27a4.5,4.5,0,0,0,9,0Z"/><path class="cls-2" d="M124,160.27a4.5,4.5,0,0,0,9,0Z"/><path class="cls-2" d="M124,172.16a4.5,4.5,0,0,0,9,0Z"/><path class="cls-2" d="M137.94,172.16a4.5,4.5,0,0,0,9,0Z"/></svg>