<svg id="Layer_1" data-name="Layer 1" xmlns="http://www.w3.org/2000/svg" viewBox="0 0 300 300"><defs><style>.cls-1{fill:#fff;}.cls-2,.cls-3,.cls-5{fill:none;stroke-linejoin:round;stroke-width:2px;}.cls-2{stroke:#0396bb;}.cls-2,.cls-3{stroke-linecap:round;}.cls-3,.cls-5{stroke:#e91f27;}.cls-4{fill:#e91f27;}</style></defs><circle class="cls-1" cx="150" cy="150" r="90"/><path class="cls-2" d="M123.18,223.9a20.19,20.19,0,0,1-12.62-36V108.34a12.63,12.63,0,0,1,25.25,0V188a20.19,20.19,0,0,1-12.63,36Z"/><line class="cls-3" x1="123.18" y1="122.53" x2="123.18" y2="204.98"/><circle class="cls-4" cx="123.18" cy="204.98" r="7.38" transform="translate(-108.86 147.14) rotate(-45)"/><line class="cls-2" x1="123.44" y1="175.94" x2="129.37" y2="175.94"/><line class="cls-2" x1="123.44" y1="163.68" x2="129.37" y2="163.68"/><line class="cls-2" x1="123.44" y1="151.41" x2="129.37" y2="151.41"/><line class="cls-2" x1="123.44" y1="139.14" x2="129.37" y2="139.14"/><line class="cls-2" x1="123.44" y1="126.88" x2="129.37" y2="126.88"/><line class="cls-2" x1="123.44" y1="114.31" x2="129.37" y2="114.31"/><polyline class="cls-3" points="216.48 225.39 216.48 128.1 146.6 128.1"/><line class="cls-3" x1="159.3" y1="175.76" x2="204.61" y2="175.76"/><line class="cls-3" x1="159.3" y1="159.65" x2="204.61" y2="159.65"/><line class="cls-3" x1="159.3" y1="191.86" x2="204.61" y2="191.86"/><line class="cls-3" x1="159.3" y1="207.97" x2="204.61" y2="207.97"/><line class="cls-3" x1="159.3" y1="143.55" x2="204.61" y2="143.55"/><polyline class="cls-5" points="142.97 118.68 224.31 118.68 224.31 128.1 142.97 128.1"/></svg>